<svg width="52" height="52" viewBox="0 0 52 52" fill="none" xmlns="http://www.w3.org/2000/svg">
<g clip-path="url(#clip0_675_2)">
<path d="M47.3492 6.81738L43.0159 2.48402C42.5927 2.0608 41.9071 2.0608 41.484 2.48402C41.0608 2.90723 41.0608 3.59277 41.484 4.01588L45.0514 7.58327L41.484 11.1506C41.2809 11.3538 41.1666 11.6288 41.1666 11.9166V15.1666C41.1666 17.5566 43.1101 19.5 45.5 19.5V37.9166C45.5 38.5143 45.0144 39 44.4166 39C43.8189 39 43.3333 38.5144 43.3333 37.9166V35.75C43.3333 33.9578 41.8754 32.5 40.0833 32.5H39V4.33337C39 1.9434 37.0566 0 34.6666 0H13C10.6101 0 8.66662 1.9434 8.66662 4.33337V43.3334C6.27675 43.3334 4.33325 45.2768 4.33325 47.6667V50.9167C4.33316 51.059 4.36112 51.1999 4.41553 51.3314C4.46994 51.4629 4.54974 51.5824 4.65035 51.683C4.75097 51.7836 4.87044 51.8634 5.00192 51.9178C5.1334 51.9722 5.27432 52.0002 5.41662 52.0001H42.25C42.3923 52.0002 42.5332 51.9722 42.6647 51.9178C42.7962 51.8634 42.9156 51.7836 43.0163 51.683C43.1169 51.5824 43.1967 51.4629 43.2511 51.3314C43.3055 51.1999 43.3334 51.059 43.3334 50.9167V47.6667C43.3334 45.2769 41.39 43.3334 39 43.3334V34.6667H40.0834C40.681 34.6667 41.1667 35.1523 41.1667 35.7501V37.9167C41.1667 39.7089 42.6246 41.1667 44.4167 41.1667C46.2089 41.1667 47.6667 39.7089 47.6667 37.9167V7.58337C47.6667 7.44109 47.6387 7.30022 47.5842 7.16879C47.5297 7.03736 47.4499 6.91795 47.3492 6.81738ZM10.8334 4.33337C10.8334 3.13899 11.8056 2.16673 13 2.16673H34.6666C35.861 2.16673 36.8333 3.13899 36.8333 4.33337V43.3334H10.8333L10.8334 4.33337ZM41.1666 47.6666V49.8333H6.49999V47.6666C6.49999 46.4723 7.47224 45.5 8.66662 45.5H39C40.1944 45.5 41.1666 46.4723 41.1666 47.6666ZM45.5 17.3334C44.3056 17.3334 43.3334 16.3611 43.3334 15.1667V12.3652L45.5 10.1986V17.3334Z" fill="white"/>
<path d="M33.5834 4.3335H14.0834C13.9411 4.3334 13.8002 4.36136 13.6687 4.41577C13.5372 4.47018 13.4177 4.54998 13.3171 4.6506C13.2165 4.75122 13.1367 4.87068 13.0823 5.00217C13.0279 5.13365 12.9999 5.27457 13 5.41686V18.437C12.9999 18.5793 13.0279 18.7202 13.0823 18.8517C13.1367 18.9832 13.2165 19.1026 13.3171 19.2032C13.4177 19.3039 13.5372 19.3837 13.6687 19.4381C13.8002 19.4925 13.9411 19.5204 14.0834 19.5203H33.5834C33.7257 19.5204 33.8666 19.4925 33.9981 19.4381C34.1295 19.3837 34.249 19.3039 34.3496 19.2032C34.4503 19.1026 34.53 18.9832 34.5845 18.8517C34.6389 18.7202 34.6668 18.5793 34.6667 18.437V5.41676C34.6668 5.27448 34.6388 5.13358 34.5844 5.00211C34.53 4.87065 34.4502 4.7512 34.3496 4.65059C34.249 4.54999 34.1295 4.4702 33.998 4.41579C33.8666 4.36138 33.7257 4.33342 33.5834 4.3335ZM32.5 17.3536H15.1666V6.50013H32.5V17.3536Z" fill="white"/>
</g>
<defs>
<clipPath id="clip0_675_2">
<rect width="52" height="52" fill="white"/>
</clipPath>
</defs>
</svg>
