<svg width="52" height="52" viewBox="0 0 52 52" fill="none" xmlns="http://www.w3.org/2000/svg">
<g clip-path="url(#clip0_675_6)">
<path d="M45.2242 18.3197C45.2248 18.1061 45.3099 17.9015 45.461 17.7505C45.612 17.5994 45.8166 17.5143 46.0302 17.5137C46.4791 17.5137 46.848 17.8708 46.848 18.3197V42.7426C46.8471 42.9592 46.7607 43.1667 46.6075 43.3199C46.4543 43.4731 46.2468 43.5595 46.0302 43.5604H31.3589C30.91 43.5604 30.5529 43.1919 30.5529 42.7426C30.5529 42.2933 30.91 41.9366 31.3589 41.9366H45.2242V18.3197ZM15.2246 23.2483C15.2246 23.6972 14.8558 24.0543 14.4069 24.0543C13.958 24.0543 13.5891 23.6976 13.5891 23.2483V18.3197C13.5891 17.8708 13.9575 17.5137 14.4069 17.5137C14.8562 17.5137 15.2246 17.8708 15.2246 18.3197V23.2483ZM5.72367 42.3969C7.56642 40.4164 9.38601 40.3128 11.9194 40.9344L16.664 42.0971C17.355 42.2701 17.8961 42.7536 18.2187 43.3524C18.3698 43.6403 18.4711 43.9517 18.5181 44.2734C18.5295 44.377 18.5413 44.4923 18.5413 44.6073L26.5107 42.1316C27.4548 41.7977 28.3071 42.0625 28.8828 42.6037C29.1344 42.8425 29.331 43.1334 29.4588 43.456C29.597 43.7785 29.6542 44.1243 29.6429 44.4692C29.6083 45.2752 29.1708 46.0812 28.1804 46.5419C24.4607 48.3155 20.5798 49.9617 16.8021 51.6545C16.5429 51.7773 16.2676 51.8627 15.9843 51.908C15.7081 51.9539 15.4318 51.9657 15.1438 51.9312L4.01905 50.9753C3.9126 50.9678 3.80874 50.939 3.71363 50.8907C3.61851 50.8423 3.53408 50.7753 3.46535 50.6937C3.39661 50.6121 3.34497 50.5175 3.3135 50.4156C3.28202 50.3136 3.27135 50.2064 3.28211 50.1002L3.31664 43.5486C3.31664 43.1225 3.66195 42.7654 4.07673 42.7426C4.46836 42.7081 5.4588 42.6849 5.72367 42.3969ZM10.7795 46.496C10.3415 46.4846 9.98483 46.1043 10.008 45.6554C10.0109 45.549 10.0352 45.4443 10.0793 45.3475C10.1235 45.2507 10.1867 45.1637 10.2652 45.0918C10.3436 45.0199 10.4357 44.9644 10.536 44.9288C10.6363 44.8932 10.7427 44.8781 10.8489 44.8844L16.7566 45.1261C16.8289 45.0544 16.8772 44.9619 16.8947 44.8616C16.9293 44.7576 16.9293 44.6313 16.9061 44.5045C16.894 44.3662 16.8506 44.2325 16.7794 44.1133C16.6644 43.8943 16.4917 43.7217 16.2841 43.6758L11.5395 42.5127C8.80995 41.8448 8.11933 42.4436 6.95583 43.4686L6.86361 43.5494C6.36839 44.0446 5.6083 44.2173 4.92864 44.2973L4.90548 49.4218L15.2701 50.3196C15.4428 50.331 15.5813 50.331 15.719 50.3082C15.8572 50.285 16.0071 50.2391 16.1452 50.1701L27.4771 45.092C27.8801 44.8848 28.1568 44.5395 27.9606 44.0678C27.7879 43.653 27.4195 43.5376 27.0047 43.6762L17.2388 46.7157H17.2275C17.1449 46.7386 17.0596 46.7502 16.974 46.7503L10.7795 46.496ZM7.63548 38.5972C7.63548 39.0457 7.26701 39.415 6.82948 39.415C6.61289 39.4141 6.40544 39.3276 6.25229 39.1744C6.09913 39.0213 6.01266 38.8138 6.0117 38.5972V27.9112C6.0117 26.7599 6.95623 25.8158 8.10795 25.8158H25.6819C26.8332 25.8158 27.7778 26.7599 27.7778 27.9112V39.8062C27.7778 40.2551 27.4093 40.624 26.96 40.624C26.5107 40.624 26.154 40.2555 26.154 39.8062V27.9112C26.154 27.6581 25.9468 27.4505 25.6819 27.4505H8.10755C7.84267 27.4505 7.63548 27.6581 7.63548 27.9112V38.5972Z" fill="white"/>
<path d="M14.4068 25.8153H19.3822C19.8311 25.8153 20.1882 26.1838 20.1882 26.6327V32.7585C20.1882 33.242 19.9119 33.6799 19.4626 33.8753C19.2471 33.9711 19.0085 34.0026 18.7755 33.9658C18.5425 33.929 18.3252 33.8257 18.1496 33.6681L16.9292 32.5514L15.6166 33.7027C15.4404 33.855 15.2249 33.9547 14.9947 33.9903C14.2573 34.1057 13.6008 33.5182 13.6008 32.7813V26.6331C13.6008 26.1838 13.9575 25.8153 14.4068 25.8153ZM18.564 27.4501H15.2246V31.8949L16.1228 31.0893C16.3645 30.8817 16.6526 30.7899 16.9406 30.7899C17.2286 30.7899 17.528 30.8935 17.7466 31.101L18.564 31.8494V27.4501ZM20.7638 40.2896C20.3149 40.2896 19.9578 39.9211 19.9578 39.4718C19.9578 39.0225 20.3149 38.6654 20.7638 38.6654H23.0092C23.4581 38.6654 23.827 39.0225 23.827 39.4718C23.826 39.6884 23.7395 39.8959 23.5864 40.049C23.4332 40.2022 23.2258 40.2886 23.0092 40.2896H20.7638ZM35.1248 27.4964H39.7199C40.3881 27.4964 40.9979 27.773 41.4359 28.2106V28.222C41.6638 28.4455 41.8445 28.7127 41.9672 29.0074C42.0899 29.3022 42.1521 29.6187 42.15 29.938V42.7425C42.15 43.1915 41.793 43.5603 41.344 43.5603H33.501C33.2844 43.5595 33.0769 43.473 32.9237 43.3199C32.7705 43.1667 32.6841 42.9592 32.6832 42.7425V29.9375C32.6832 29.2693 32.9599 28.6595 33.3974 28.2215V28.2102H33.4088C33.8635 27.7542 34.4808 27.4975 35.1248 27.4964ZM39.7195 29.1202H35.1248C35.0174 29.1198 34.9111 29.1411 34.8121 29.1827C34.7132 29.2243 34.6236 29.2854 34.5487 29.3623C34.3992 29.5118 34.307 29.7076 34.307 29.938V41.9361H40.5259V29.9375C40.5259 29.7072 40.4336 29.5114 40.2959 29.3619C40.1432 29.2084 39.936 29.1215 39.7195 29.1202ZM30.2185 13.3105C31.601 13.3105 32.8445 13.8748 33.7545 14.773C34.6527 15.6826 35.217 16.9262 35.217 18.3082C35.217 18.7571 34.8485 19.1142 34.3992 19.1142H26.0386C25.9325 19.1149 25.8274 19.0946 25.7292 19.0543C25.6311 19.0141 25.542 18.9547 25.4669 18.8798C25.3919 18.8048 25.3325 18.7156 25.2922 18.6175C25.2519 18.5194 25.2315 18.4143 25.2322 18.3082C25.2322 16.9266 25.7851 15.683 26.6947 14.773C27.6292 13.838 28.8965 13.312 30.2185 13.3105ZM32.6028 15.9244C32.2903 15.6103 31.9187 15.361 31.5095 15.1911C31.1003 15.0211 30.6616 14.9337 30.2185 14.9339C29.7755 14.9337 29.3369 15.0211 28.9278 15.1911C28.5188 15.361 28.1474 15.6103 27.835 15.9244C27.4202 16.3505 27.0981 16.8912 26.9482 17.49H33.4896C33.3409 16.8976 33.0345 16.3565 32.6028 15.9244Z" fill="white"/>
<path fill-rule="evenodd" clip-rule="evenodd" d="M38.6714 36.3397C38.8849 36.3391 39.0896 36.2541 39.2407 36.1032C39.3918 35.9522 39.477 35.7477 39.4778 35.5341C39.4778 35.0852 39.1203 34.7163 38.6714 34.7163C38.2225 34.7163 37.8536 35.0848 37.8536 35.5341C37.854 35.9712 38.2225 36.3397 38.6714 36.3397Z" fill="white"/>
<path d="M39.927 7.23091C39.9277 7.33697 39.9073 7.4421 39.867 7.54021C39.8267 7.63832 39.7673 7.72745 39.6923 7.80243C39.6173 7.8774 39.5281 7.93674 39.43 7.97699C39.3318 8.01725 39.2267 8.03761 39.1206 8.03691C38.6717 8.03691 38.3029 7.67982 38.3029 7.23091V3.75382C38.3029 3.30491 38.6713 2.93604 39.1206 2.93604H43.3359C43.7848 2.93604 44.1537 3.3045 44.1537 3.75382V10.4667C44.1537 10.9156 43.7852 11.2841 43.3359 11.2841C42.8866 11.2841 42.5299 10.9156 42.5299 10.4667V4.57119H39.9275L39.927 7.23091Z" fill="white"/>
<path d="M30.2185 7.18494L13.1402 20.3117C12.5991 20.7265 11.9543 20.8873 11.3324 20.8069C10.6936 20.7188 10.1148 20.384 9.71996 19.8742L8.98302 18.93C8.76853 18.672 8.61508 18.3688 8.53411 18.0432C8.442 17.7215 8.41847 17.3841 8.46505 17.0528C8.49958 16.7074 8.60317 16.3849 8.77624 16.0968C8.94022 15.8042 9.16389 15.5492 9.43274 15.3485C9.44411 15.3372 9.46727 15.3254 9.47864 15.314L28.7333 0.517969C29.1822 0.17225 29.7001 0 30.2185 0C30.7373 0 31.2557 0.17225 31.7046 0.517969L51.0173 15.3489C51.2862 15.5494 51.5098 15.8044 51.6734 16.0973C51.8347 16.3853 51.9383 16.7074 51.9846 17.0532C52.0193 17.3848 51.996 17.72 51.9155 18.0436C51.8243 18.3653 51.6719 18.6665 51.4666 18.9304L50.7297 19.8746C50.3323 20.3871 49.7488 20.7223 49.1059 20.8073C48.7885 20.8488 48.466 20.8264 48.1574 20.7413C47.8488 20.6563 47.5604 20.5103 47.3091 20.3121L30.2185 7.18494ZM12.1497 19.0336L29.7115 5.53841C29.8533 5.42479 30.029 5.36194 30.2107 5.35988C30.3923 5.35782 30.5694 5.41667 30.7137 5.52703L48.2877 19.0336C48.4721 19.1718 48.6907 19.2294 48.8983 19.1949C49.1055 19.1718 49.3013 19.0568 49.4508 18.8723L50.1877 17.94C50.2682 17.8364 50.3259 17.7328 50.3486 17.6174C50.3831 17.5138 50.3831 17.3871 50.3718 17.249C50.3543 17.1293 50.3194 17.0128 50.2682 16.9033C50.2105 16.8001 50.13 16.7192 50.026 16.6388L30.7255 1.79603C30.5808 1.68297 30.4022 1.622 30.2185 1.62297C30.0459 1.62297 29.8732 1.68066 29.7233 1.79603L10.4687 16.5925C10.4455 16.6038 10.4341 16.627 10.411 16.6384C10.3188 16.7188 10.2383 16.7997 10.1806 16.9028C10.123 16.9951 10.0884 17.11 10.077 17.2486C10.0539 17.3867 10.0657 17.5134 10.0884 17.617C10.123 17.7324 10.1806 17.836 10.2611 17.9396L10.9866 18.8719C11.1365 19.0564 11.3324 19.1713 11.5509 19.1945C11.6564 19.2111 11.7643 19.2054 11.8674 19.1777C11.9706 19.15 12.0668 19.1009 12.1497 19.0336ZM1.55474 41.0958H3.38611C3.81227 41.0958 4.20389 41.2685 4.48014 41.5561C4.62664 41.698 4.74296 41.868 4.82213 42.0559C4.90129 42.2438 4.94167 42.4458 4.94083 42.6498V50.4453C4.94183 50.6492 4.90153 50.8513 4.82235 51.0392C4.74318 51.2272 4.62677 51.3971 4.48014 51.5389C4.33828 51.6856 4.16818 51.8022 3.98009 51.8814C3.792 51.9606 3.58981 52.001 3.38571 52H1.55474C1.35074 52.001 1.14865 51.9606 0.960636 51.8815C0.772623 51.8023 0.602568 51.6859 0.460706 51.5393C0.314078 51.3976 0.197669 51.2276 0.118494 51.0396C0.0393192 50.8517 -0.00098235 50.6496 1.81826e-05 50.4457V42.6502C1.81826e-05 42.224 0.172674 41.8328 0.460706 41.5565C0.60254 41.4099 0.772588 41.2935 0.960609 41.2143C1.14863 41.1351 1.35073 41.0948 1.55474 41.0958ZM3.31705 42.7192H1.62421V50.3762H3.31705V42.7192Z" fill="white"/>
</g>
<defs>
<clipPath id="clip0_675_6">
<rect width="52" height="52" fill="white"/>
</clipPath>
</defs>
</svg>
