<svg width="52" height="52" viewBox="0 0 52 52" fill="none" xmlns="http://www.w3.org/2000/svg">
<path d="M26 1.62504C21.3832 1.61632 16.8598 2.92594 12.9618 5.39992L13.8344 6.77142C18.6554 3.7152 24.448 2.58006 30.066 3.59062C35.6839 4.60119 40.7178 7.68383 44.1716 12.2285C47.6253 16.7732 49.2472 22.4488 48.7163 28.1322C48.1854 33.8155 45.5404 39.0926 41.3047 42.919C37.069 46.7454 31.5513 48.8424 25.8434 48.795C20.1355 48.7476 14.6533 46.5592 10.4817 42.663C6.31017 38.7668 3.75318 33.4465 3.31675 27.7551C2.88032 22.0637 4.59625 16.4159 8.12499 11.9292V16.25H9.74999V9.75004C9.74995 9.62663 9.7218 9.50484 9.66768 9.39393C9.61355 9.28301 9.53486 9.18589 9.4376 9.10992C9.34033 9.03395 9.22703 8.98114 9.10631 8.9555C8.98559 8.92986 8.86061 8.93205 8.74086 8.96192L2.24086 10.5869L2.63411 12.1632L6.67305 11.1532C3.32112 15.5177 1.54471 20.888 1.63283 26.3903C1.72094 31.8927 3.66841 37.2034 7.15837 41.4583C10.6483 45.7131 15.4754 48.6619 20.8542 49.8247C26.2331 50.9875 31.8471 50.2959 36.7829 47.8626C41.7188 45.4292 45.686 41.3972 48.039 36.4226C50.3921 31.4479 50.9926 25.8234 49.7427 20.4641C48.4929 15.1049 45.4663 10.3262 41.1555 6.90567C36.8446 3.48512 31.5031 1.62398 26 1.62504Z" fill="white"/>
<path d="M26 43.0625C29.3746 43.0625 32.6735 42.0618 35.4794 40.187C38.2853 38.3121 40.4723 35.6473 41.7637 32.5295C43.0551 29.4118 43.393 25.9811 42.7346 22.6713C42.0763 19.3615 40.4512 16.3212 38.065 13.935C35.6788 11.5488 32.6385 9.92372 29.3287 9.26536C26.0189 8.607 22.5882 8.94489 19.4705 10.2363C16.3527 11.5277 13.6879 13.7147 11.813 16.5206C9.9382 19.3265 8.9375 22.6254 8.9375 26C8.94245 30.5237 10.7417 34.8608 13.9405 38.0596C17.1392 41.2583 21.4763 43.0576 26 43.0625ZM26 13.8125C28.4105 13.8125 30.7668 14.5273 32.771 15.8665C34.7752 17.2057 36.3373 19.1091 37.2598 21.3361C38.1822 23.563 38.4236 26.0135 37.9533 28.3777C37.4831 30.7418 36.3223 32.9134 34.6179 34.6179C32.9134 36.3223 30.7418 37.4831 28.3777 37.9533C26.0135 38.4236 23.563 38.1822 21.336 37.2598C19.1091 36.3373 17.2056 34.7752 15.8665 32.771C14.5273 30.7668 13.8125 28.4105 13.8125 26C13.8164 22.7689 15.1016 19.6712 17.3864 17.3864C19.6712 15.1017 22.7689 13.8164 26 13.8125Z" fill="white"/>
<path d="M19.5 31.6875H25.1875V30.0625H20.3125V26.8125H24.375C24.5905 26.8125 24.7972 26.7269 24.9495 26.5745C25.1019 26.4222 25.1875 26.2155 25.1875 26V21.125C25.1875 20.9095 25.1019 20.7028 24.9495 20.5505C24.7972 20.3981 24.5905 20.3125 24.375 20.3125H18.6875V21.9375H23.5625V25.1875H19.5C19.2845 25.1875 19.0778 25.2731 18.9255 25.4255C18.7731 25.5778 18.6875 25.7845 18.6875 26V30.875C18.6875 31.0905 18.7731 31.2972 18.9255 31.4495C19.0778 31.6019 19.2845 31.6875 19.5 31.6875ZM26.8125 20.3125V26C26.8125 26.2155 26.8981 26.4222 27.0505 26.5745C27.2028 26.7269 27.4095 26.8125 27.625 26.8125H31.6875V31.6875H33.3125V20.3125H31.6875V25.1875H28.4375V20.3125H26.8125ZM25.1875 15.4375H26.8125V17.0625H25.1875V15.4375ZM15.4375 25.1875H17.0625V26.8125H15.4375V25.1875ZM25.1875 34.9375H26.8125V36.5625H25.1875V34.9375ZM34.9375 25.1875H36.5625V26.8125H34.9375V25.1875Z" fill="white"/>
</svg>
