<svg width="52" height="52" viewBox="0 0 52 52" fill="none" xmlns="http://www.w3.org/2000/svg">
<g clip-path="url(#clip0_675_19)">
<path d="M49.1581 17.3127L47.5347 14.922C47.456 14.8061 47.3495 14.7118 47.2249 14.6479C47.1003 14.5839 46.9615 14.5524 46.8215 14.5561L43.6746 14.6384C43.5409 14.6419 43.41 14.6775 43.2929 14.742C43.1758 14.8066 43.0758 14.8984 43.0016 15.0096L42.6811 15.4895L39.4164 17.579C39.3094 17.6475 39.2194 17.7395 39.1533 17.848C39.0872 17.9564 39.0467 18.0786 39.0348 18.2051L38.9639 18.9645H37.697L35.2056 16.9346C35.1068 16.8542 34.9909 16.7974 34.8668 16.7687C34.7427 16.7399 34.6136 16.7398 34.4895 16.7686C34.3653 16.7973 34.2494 16.854 34.1506 16.9344C34.0517 17.0148 33.9726 17.1168 33.9191 17.2324L32.8819 19.4797L22.9561 15.2423L23.5254 13.0716C23.579 12.8675 23.5533 12.6507 23.4536 12.4648C23.3539 12.2788 23.1876 12.1375 22.988 12.0691L22.1641 11.7867L20.8076 9.71274L21.0019 9.66521C21.1275 9.63448 21.2442 9.57501 21.3429 9.49149C21.4416 9.40796 21.5195 9.30267 21.5706 9.1839C21.6217 9.06516 21.6446 8.93615 21.6374 8.80705C21.6302 8.67796 21.5931 8.55229 21.5291 8.43996L21.0607 7.61781L22.8533 3.938C22.9448 3.75027 22.9626 3.5351 22.9033 3.33487C22.8441 3.13463 22.712 2.96385 22.5331 2.85615L20.922 1.88623C20.7791 1.79988 20.6135 1.75858 20.4468 1.76771L17.0085 1.94951L12.7216 0.0702946C12.5995 0.0167864 12.4664 -0.00674461 12.3334 0.00166519C12.2003 0.010075 12.0712 0.0501817 11.9568 0.118638L9.64671 1.50161C9.53374 1.56929 9.43836 1.66269 9.36834 1.77421C9.29833 1.88574 9.25565 2.01223 9.24379 2.14338C9.23193 2.27453 9.25122 2.40662 9.30009 2.5289C9.34897 2.65117 9.42604 2.76017 9.52504 2.84701L10.8132 3.97619L10.8842 6.83872C10.8893 7.04084 10.9674 7.23427 11.1041 7.3832L13.2212 9.68857L11.4657 12.8532C11.3994 12.9725 11.3635 13.1063 11.361 13.2429L11.3544 13.5906L8.2682 16.9824L6.70322 16.4811C6.49474 16.4144 6.2684 16.4321 6.07285 16.5305C5.8773 16.6288 5.72814 16.8 5.65743 17.0072L4.79588 19.5339C4.73939 19.6996 4.73633 19.8787 4.78711 20.0462C4.8379 20.2137 4.93997 20.3609 5.07893 20.4673L5.52276 20.8069L6.65234 23.1188L6.66077 23.6226L3.25111 24.8448C3.0965 24.9003 2.96164 25 2.8634 25.1317C2.76516 25.2633 2.70789 25.421 2.69875 25.585C2.6896 25.7489 2.72899 25.912 2.81198 26.0537C2.89498 26.1955 3.0179 26.3096 3.1654 26.3819L4.20865 26.8929C4.03108 27.0191 3.90979 27.2096 3.8706 27.4238C3.8314 27.6381 3.87741 27.8592 3.99882 28.04L5.27292 29.9376C5.35423 30.0588 5.46595 30.1566 5.5969 30.2212L7.6638 31.2407C7.83755 31.3265 8.03568 31.3491 8.2243 31.3049C8.41292 31.2607 8.5803 31.1522 8.69781 30.9982L9.60852 29.8045L10.099 30.9667L9.80474 32.514C9.77638 32.6633 9.78923 32.8175 9.84191 32.96L16.6847 51.4548C16.8045 51.7787 17.1228 52.0004 17.4683 52.0004C17.5703 52.0004 17.6713 51.9818 17.7665 51.9454L19.4418 51.3055C19.6352 51.2316 19.7942 51.0887 19.8883 50.9043L20.2559 50.1828L20.8272 49.4851L22.2627 47.7635C22.3558 47.6519 22.4181 47.5179 22.4435 47.3748L23.2007 43.1163C23.2251 42.9796 23.215 42.8391 23.1712 42.7072L22.7712 41.5004L23.5335 39.1964L24.1706 38.8037L24.9673 38.7096C25.0812 38.6962 25.1911 38.6595 25.2901 38.6018C25.3892 38.544 25.4753 38.4665 25.5431 38.3741L26.5308 37.0278C26.8643 36.8885 27.2564 36.7817 27.5248 36.5318C27.8417 36.2367 28.1391 35.9173 28.4452 35.611C28.69 35.3662 28.9265 35.1607 29.0642 34.8373C29.2189 34.4743 29.3671 34.1084 29.5184 33.7439L32.4898 32.111C32.6057 32.0473 32.7049 31.957 32.7791 31.8476C32.8533 31.7381 32.9004 31.6126 32.9167 31.4813L33.0621 30.3064L34.1733 29.4564L35.6642 29.7534C35.8038 29.7812 35.9482 29.7729 36.0837 29.7292C36.2192 29.6856 36.3413 29.6081 36.4384 29.504C36.5355 29.3999 36.6044 29.2727 36.6386 29.1345C36.6727 28.9963 36.671 28.8517 36.6336 28.7144L35.213 23.4965L36.9568 22.7737L38.1544 23.5562C38.2643 23.6281 38.3897 23.673 38.5203 23.6873L39.4051 23.7845L38.4137 25.2505C38.3267 25.379 38.2773 25.5292 38.2709 25.6843C38.2645 25.8394 38.3015 25.9932 38.3776 26.1284C38.4534 26.2639 38.5656 26.3755 38.7016 26.4506C38.8375 26.5256 38.9917 26.5612 39.1468 26.5532L39.8004 26.5211L41.3111 28.5849C41.4084 28.7181 41.5431 28.8194 41.6981 28.8761C41.853 28.9328 42.0213 28.9424 42.1816 28.9035C42.342 28.8647 42.4873 28.7793 42.5992 28.6581C42.7111 28.5369 42.7847 28.3852 42.8106 28.2223L43.2221 25.6306L43.9237 25.7651C44.0337 25.7861 44.1468 25.7848 44.2562 25.7613C44.3657 25.7378 44.4693 25.6926 44.5609 25.6284C44.6526 25.5641 44.7303 25.482 44.7896 25.3871C44.849 25.2922 44.8886 25.1863 44.9063 25.0758L45.3603 22.2252L45.7639 21.6929C45.8512 21.5776 45.9071 21.4416 45.9262 21.2982L45.9942 20.786L48.4523 19.9319C48.5882 19.8846 48.7096 19.8031 48.8048 19.6952C48.9 19.5873 48.9656 19.4566 48.9955 19.3159L49.2838 17.9555C49.3073 17.8454 49.3083 17.7317 49.2867 17.6212C49.2651 17.5107 49.2213 17.4058 49.1581 17.3127ZM47.4587 18.5081L44.9597 19.3763C44.8135 19.4271 44.6843 19.5175 44.5865 19.6374C44.4886 19.7573 44.426 19.902 44.4057 20.0555L44.2988 20.8592L43.9022 21.3824C43.8193 21.4919 43.7646 21.6201 43.743 21.7557L43.3916 23.9614L42.6895 23.8268C42.5795 23.8058 42.4664 23.8071 42.3569 23.8306C42.2475 23.8541 42.1438 23.8994 42.0522 23.9637C41.9606 24.028 41.8828 24.1101 41.8234 24.2051C41.7641 24.3 41.7245 24.4059 41.7068 24.5165L41.4747 25.9787L40.8833 25.1709C40.817 25.0803 40.7332 25.004 40.6368 24.9466L41.5658 23.5731C41.6464 23.4538 41.6949 23.3158 41.7065 23.1723C41.7181 23.0288 41.6924 22.8847 41.632 22.754C41.5715 22.6234 41.4784 22.5106 41.3615 22.4265C41.2446 22.3424 41.108 22.29 40.9649 22.2742L38.9015 22.0477L37.5018 21.1331C37.388 21.0587 37.2577 21.0132 37.1222 21.0006C36.9868 20.988 36.8503 21.0086 36.7247 21.0607L33.8937 22.2343C33.706 22.3121 33.5531 22.4557 33.4636 22.6382C33.3741 22.8207 33.3542 23.0295 33.4076 23.2256L34.6666 27.8505L34.1293 27.7435C34.0128 27.7203 33.8927 27.7222 33.777 27.749C33.6614 27.7759 33.5527 27.8271 33.4584 27.8993L31.7685 29.192C31.6803 29.2595 31.6065 29.3438 31.5512 29.4401C31.496 29.5365 31.4605 29.6429 31.4469 29.7531L31.3109 30.8521L28.4572 32.4203C28.291 32.5116 28.1609 32.6568 28.0881 32.8319L27.5389 34.154L26.4376 35.2556L25.6731 35.5746C25.5328 35.6331 25.4111 35.7289 25.3213 35.8515L24.4111 37.0922L23.7917 37.1653C23.6709 37.1796 23.5547 37.22 23.4511 37.2838L22.3977 37.9332C22.2302 38.0364 22.1046 38.1954 22.0428 38.3821L21.0982 41.2378C21.0417 41.4084 21.0417 41.5926 21.0983 41.7631L21.5187 43.0316L20.8374 46.8634L19.5395 48.4201L18.9064 49.1931C18.8684 49.2395 18.8355 49.2898 18.8084 49.3432L18.5458 49.8586L17.9597 50.0824L11.4906 32.5974L11.7886 31.0302C11.8193 30.8683 11.8015 30.701 11.7376 30.5492L11.0555 28.9332L11.0948 27.5984C11.0999 27.4216 11.0488 27.2478 10.9489 27.1019C10.8489 26.956 10.7053 26.8455 10.5385 26.7865C10.3718 26.7274 10.1907 26.7228 10.0212 26.7732C9.85166 26.8236 9.70252 26.9265 9.59522 27.0671L7.78679 29.4375L6.53666 28.8207L5.96568 27.8512L6.43743 27.6044C6.57423 27.5327 6.68849 27.4246 6.76756 27.2919C6.84663 27.1593 6.8874 27.0073 6.88536 26.8529C6.88332 26.6985 6.83854 26.5477 6.756 26.4172C6.67345 26.2867 6.55637 26.1816 6.41773 26.1136L6.02265 25.92L5.67663 25.7504L7.78862 24.9933C7.95292 24.9344 8.09464 24.8255 8.1939 24.6819C8.29317 24.5384 8.34501 24.3673 8.34214 24.1928L8.32071 22.9047C8.31865 22.7823 8.2897 22.6618 8.2359 22.5518L6.93814 19.8958C6.88125 19.7794 6.79804 19.6778 6.6951 19.599L6.5718 19.5047L6.9748 18.3227L8.27023 18.7377C8.4228 18.7866 8.5862 18.7906 8.74097 18.7492C8.89574 18.7078 9.03535 18.6228 9.14316 18.5043L12.8025 14.4828C12.9389 14.333 13.0162 14.1387 13.0199 13.9361L13.0283 13.4821L14.9753 9.97254C15.0603 9.81914 15.095 9.64287 15.0743 9.46868C15.0537 9.2945 14.9787 9.13124 14.8601 9.00201L12.5475 6.48376L12.4752 3.56851C12.4723 3.45307 12.4455 3.33948 12.3965 3.2349C12.3476 3.13032 12.2775 3.03702 12.1906 2.96086L11.4897 2.34631L12.4457 1.7739L16.5191 3.55978C16.6386 3.61211 16.7686 3.63579 16.8989 3.62894L20.2797 3.45009L21.0162 3.89351L19.3655 7.28235C19.306 7.40454 19.2772 7.53941 19.2816 7.67527C19.286 7.81112 19.3234 7.94385 19.3907 8.06194L19.5293 8.30529L19.2635 8.37039C19.1337 8.40217 19.0134 8.46461 18.9127 8.55249C18.812 8.64036 18.7339 8.7511 18.6849 8.87541C18.6359 8.99972 18.6174 9.13398 18.6309 9.26691C18.6445 9.39985 18.6898 9.52759 18.763 9.63941L20.9229 12.9415C21.0247 13.0971 21.1755 13.2144 21.3514 13.2746L21.7122 13.3983L21.157 15.5155C21.1062 15.7094 21.1267 15.9151 21.2149 16.0951C21.3031 16.2751 21.453 16.4174 21.6373 16.4961L32.9728 21.3352C33.1727 21.4207 33.3981 21.4248 33.601 21.3467C33.804 21.2686 33.9684 21.1144 34.0595 20.9169L34.9855 18.9105L36.8725 20.4477C37.0215 20.5692 37.2079 20.6355 37.4002 20.6356H39.7255C39.9336 20.6356 40.1343 20.5579 40.2882 20.4177C40.4421 20.2775 40.5381 20.0849 40.5575 19.8776L40.6612 18.7665L43.7296 16.8027C43.8267 16.7405 43.9099 16.6589 43.974 16.563L44.1511 16.2977L46.409 16.2385L47.5759 17.957L47.4587 18.5081Z" fill="white"/>
</g>
<defs>
<clipPath id="clip0_675_19">
<rect width="52" height="52" fill="white"/>
</clipPath>
</defs>
</svg>
